<svg xmlns="http://www.w3.org/2000/svg" width="800" height="550" viewBox="0 0 800 550"><rect width="800" height="550" fill="#dfe6df"/><g font-family="Pretendard, Malgun Gothic, sans-serif"><text x="32" y="35" font-size="12" font-weight="500" fill="#69736e">WEB UI / STUDIO BOOKING</text><rect x="48" y="75" width="704" height="419" rx="8" fill="#fffdfa"/><rect x="48" y="75" width="704" height="42" rx="8" fill="#243c35"/><text x="71" y="102" font-size="17" font-weight="500" fill="#fff">틈 스튜디오</text><text x="558" y="102" font-size="13" font-weight="500" fill="#fff">공간 소개     예약하기</text><text x="75" y="166" font-size="27" font-weight="500" fill="#263632">작업에 집중할 작은 공간</text><rect x="75" y="192" width="350" height="238" rx="0" fill="#d3c3a6"/><rect x="105" y="221" width="133" height="149" rx="0" fill="#f1e9d9"/><rect x="120" y="237" width="101" height="123" rx="0" fill="#b8c6b7"/><rect x="266" y="309" width="110" height="18" rx="0" fill="#8d6c4f"/><path d="M279 327L275 400" stroke="#6c513d" stroke-width="7" fill="none"/><path d="M365 327L375 400" stroke="#6c513d" stroke-width="7" fill="none"/><text x="453" y="211" font-size="18" font-weight="500" fill="#263632">예약 날짜</text><text x="453" y="247" font-size="16" font-weight="500" fill="#263632">2026년 10월</text><text x="453" y="287" font-size="13" font-weight="500" fill="#263632">1</text><text x="490" y="287" font-size="13" font-weight="500" fill="#263632">2</text><text x="527" y="287" font-size="13" font-weight="500" fill="#263632">3</text><text x="564" y="287" font-size="13" font-weight="500" fill="#263632">4</text><text x="601" y="287" font-size="13" font-weight="500" fill="#263632">5</text><text x="638" y="287" font-size="13" font-weight="500" fill="#263632">6</text><text x="675" y="287" font-size="13" font-weight="500" fill="#263632">7</text><text x="453" y="321" font-size="13" font-weight="500" fill="#263632">8</text><text x="490" y="321" font-size="13" font-weight="500" fill="#263632">9</text><text x="527" y="321" font-size="13" font-weight="500" fill="#263632">10</text><text x="564" y="321" font-size="13" font-weight="500" fill="#263632">11</text><text x="601" y="321" font-size="13" font-weight="500" fill="#263632">12</text><text x="638" y="321" font-size="13" font-weight="500" fill="#263632">13</text><text x="675" y="321" font-size="13" font-weight="500" fill="#263632">14</text><text x="453" y="355" font-size="13" font-weight="500" fill="#263632">15</text><text x="490" y="355" font-size="13" font-weight="500" fill="#263632">16</text><text x="527" y="355" font-size="13" font-weight="500" fill="#263632">17</text><text x="564" y="355" font-size="13" font-weight="500" fill="#263632">18</text><text x="601" y="355" font-size="13" font-weight="500" fill="#263632">19</text><text x="638" y="355" font-size="13" font-weight="500" fill="#263632">20</text><text x="675" y="355" font-size="13" font-weight="500" fill="#263632">21</text><rect x="451" y="394" width="255" height="39" rx="4" fill="#315e4c"/><text x="504" y="420" font-size="15" font-weight="500" fill="#fff">예약 시간 선택</text></g></svg>