<svg xmlns="http://www.w3.org/2000/svg" width="800" height="550" viewBox="0 0 800 550"><rect width="800" height="550" fill="#e0e8e3"/><g font-family="Pretendard, Malgun Gothic, sans-serif"><text x="32" y="35" font-size="12" font-weight="500" fill="#69736e">WEBSITE / SERVICE LANDING</text><rect x="55" y="71" width="690" height="422" rx="5" fill="#f5f7f5"/><text x="80" y="105" font-size="21" font-weight="700" fill="#244649">PLAIN</text><text x="583" y="103" font-size="12" font-weight="500" fill="#244649">기능    요금    문의</text><path d="M78 119L720 119" stroke="#d8dfdc" stroke-width="2" fill="none"/><text x="81" y="181" font-size="27" font-weight="500" fill="#244649">팀이 함께 쓰는</text><text x="81" y="225" font-size="33" font-weight="700" fill="#244649">깔끔한 업무 기록.</text><text x="82" y="256" font-size="14" font-weight="500" fill="#607672">남길 일은 적고, 찾아볼 일은 쉬워집니다.</text><rect x="82" y="280" width="157" height="41" rx="3" fill="#244649"/><text x="104" y="307" font-size="13" font-weight="500" fill="#fff">서비스 알아보기</text><rect x="431" y="143" width="271" height="195" rx="6" fill="#dceae3"/><rect x="449" y="161" width="235" height="160" rx="4" fill="#fff"/><text x="466" y="187" font-size="13" font-weight="500" fill="#263632">오늘 할 일</text><rect x="466" y="201" width="201" height="26" rx="3" fill="#edf3ef"/><text x="476" y="219" font-size="10" font-weight="500" fill="#263632">□  새 프로젝트 정리</text><rect x="466" y="234" width="201" height="26" rx="3" fill="#edf3ef"/><text x="476" y="252" font-size="10" font-weight="500" fill="#263632">✓  자료 확인하기</text><rect x="466" y="267" width="201" height="26" rx="3" fill="#edf3ef"/><text x="476" y="285" font-size="10" font-weight="500" fill="#263632">□  일정 공유하기</text><rect x="82" y="366" width="198" height="94" rx="3" fill="#fff"/><text x="97" y="399" font-size="18" font-weight="700" fill="#244649">기록</text><text x="97" y="426" font-size="11" font-weight="500" fill="#607672">필요한 내용을 남기고</text><rect x="297" y="366" width="198" height="94" rx="3" fill="#fff"/><text x="312" y="399" font-size="18" font-weight="700" fill="#244649">정리</text><text x="312" y="426" font-size="11" font-weight="500" fill="#607672">팀별로 나눠 보고</text><rect x="512" y="366" width="198" height="94" rx="3" fill="#fff"/><text x="527" y="399" font-size="18" font-weight="700" fill="#244649">공유</text><text x="527" y="426" font-size="11" font-weight="500" fill="#607672">함께 확인합니다</text></g></svg>